<svg width="24" height="25" viewBox="0 0 14 14" fill="none" xmlns="http://www.w3.org/2000/svg">
<path d="M5.41423 8.2348C5.08085 7.96671 4.87793 7.60242 4.87793 7.19375C4.87793 6.37502 5.69658 5.71509 6.71235 5.71509C7.21502 5.71509 7.67769 5.87902 8.00526 6.1471" stroke="#000" stroke-width="1.0436" stroke-linecap="round" stroke-linejoin="round"/>
<path d="M8.51268 7.4559C8.37817 8.05839 7.78912 8.53384 7.04178 8.64313" stroke="#000" stroke-width="1.0436" stroke-linecap="round" stroke-linejoin="round"/>
<path d="M3.61341 9.68526C2.6933 9.10332 1.91407 8.2533 1.34937 7.19358C1.91987 6.12918 2.70431 5.27449 3.63022 4.68788C4.55033 4.10127 5.61191 3.78275 6.71233 3.78275C7.81913 3.78275 8.88013 4.10594 9.80604 4.69675" stroke="#000" stroke-width="1.0436" stroke-linecap="round" stroke-linejoin="round"/>
<path d="M11.0305 5.72403C11.4294 6.15091 11.7802 6.64364 12.0753 7.19335C10.9349 9.32168 8.91955 10.6037 6.71233 10.6037C6.21198 10.6037 5.71858 10.5383 5.24432 10.4108" stroke="#000" stroke-width="1.0436" stroke-linecap="round" stroke-linejoin="round"/>
<path d="M11.2853 3.5097L2.13986 10.8769" stroke="#000" stroke-width="1.0436" stroke-linecap="round" stroke-linejoin="round"/>
</svg>
